<svg xmlns="http://www.w3.org/2000/svg" viewBox="0 0 512 512">
  <defs>
    <linearGradient id="ngGradient" x1="0%" y1="0%" x2="100%" y2="100%">
      <stop offset="0%" style="stop-color:#008751;stop-opacity:1" />
      <stop offset="100%" style="stop-color:#00a86b;stop-opacity:1" />
    </linearGradient>
  </defs>
  <path d="M256 0C114.6 0 0 114.6 0 256s114.6 256 256 256 256-114.6 256-256S397.4 0 256 0z" fill="url(#ngGradient)"/>
  <path d="M256 47.5c-115 0-208.5 93.5-208.5 208.5S141 464.5 256 464.5 464.5 371 464.5 256 371 47.5 256 47.5z" fill="#ffffff" opacity="0.1"/>
  <path d="M368 192L256 80 144 192h80v128h64V192h80z" fill="#ffffff"/>
  <path d="M240 352h32v80h-32z" fill="#ffffff"/> <path d="M176 288h160v32H176z" fill="#D4AF37"/> </svg>